<svg width="73" height="75" viewBox="0 0 73 75" fill="none" xmlns="http://www.w3.org/2000/svg">
<path d="M16.6107 63.9383C21.4575 59.8902 28.3229 55.038 37.2987 51.0818C51.1159 44.9882 63.6432 43.79 71.5017 43.682C71.3938 42.4784 71.0106 40.2547 69.4237 38.1767C65.8507 33.4918 59.552 33.956 59.023 34.0045C52.638 37.5236 51.1699 37.7719 50.9216 37.4265C50.3981 36.6816 55.8926 33.6753 55.8602 29.3574C55.8386 25.779 52.0281 21.0833 47.5375 21.5745C43.5812 22.0062 41.6274 26.1298 41.514 26.3781C41.0769 25.4012 39.6304 22.492 36.7752 21.677C31.5991 20.1981 25.4354 26.6372 25.8779 31.0522C26.2827 35.1056 32.2954 37.6909 32.1497 37.9122C32.0687 38.031 30.3901 37.1296 24.8632 33.6915C23.5841 34.3014 16.8266 37.6694 14.1009 45.6682C10.8841 55.1028 15.9846 63.0153 16.6053 63.9436L16.6107 63.9383Z" fill="white"/>
<path d="M42.8462 35.013C43.2348 35.1479 46.0307 36.0438 48.2598 34.4516C50.7102 32.6975 51.2445 28.8222 50.1111 27.8884C49.4526 27.3433 47.5851 27.8291 47.5851 27.8291V27.8183C47.5851 27.8183 47.9305 27.3919 48.616 27.1112C48.8966 26.9979 49.3338 26.8629 49.9329 26.8737C48.2166 26.1991 47.0238 26.4905 46.5488 26.6471C44.0283 27.4783 42.3011 30.8948 42.8516 35.0183L42.8462 35.013Z" fill="#231F20"/>
<path d="M32.1049 27.3224C33.5298 27.3926 34.9169 27.5383 34.9493 27.8622C34.9925 28.2994 32.542 28.3209 32.0077 29.6217C31.4248 31.025 33.2869 33.443 35.3918 34.5279C37.1136 35.4185 38.803 35.3051 39.5856 35.2026C39.9904 30.7929 38.015 27.344 35.4728 26.7233C35.0194 26.61 33.7996 26.4103 32.1049 27.317V27.3224Z" fill="#231F20"/>
<path d="M18.2988 66.9822C20.5873 64.9528 23.7663 62.389 27.8198 59.8307C29.8977 58.5191 36.4987 54.4981 46.0466 51.5296C56.1181 48.3991 65.2558 47.7514 72.2184 47.9187C72.4504 50.4123 72.8283 58.0981 67.7979 64.6127C66.2597 66.6044 63.8525 70.0479 59.6317 71.2029C54.9144 72.4875 53.6515 69.4326 48.0059 69.7402C40.8975 70.1234 39.872 75.1375 32.5586 74.9972C28.4242 74.9163 25.2938 73.2485 24.2575 72.6494C21.2026 70.8898 19.3297 68.5366 18.3042 66.9876L18.2988 66.9822Z" fill="white"/>
<path d="M15.8339 29.4438C15.8447 30.8903 16.6543 32.2126 17.9281 32.8873C19.1965 33.5566 20.7293 33.4756 21.9275 32.6876C21.7063 32.9466 21.35 33.3137 20.8535 33.6645C19.3422 34.7386 18.2303 34.4525 17.1887 34.8951C14.0906 36.2121 13.7613 43.0397 13.7182 43.0289C13.7182 43.0289 13.7182 43.0235 13.7182 43.0073C13.7182 42.5539 14.1392 23.6848 9.67555 22.5729C7.43026 22.0116 3.56574 25.8491 3.07998 30.2912C2.69677 33.7778 4.44013 37.2537 7.5544 39.213C7.00927 39.0834 2.34596 37.896 0.602614 33.5781C-1.10295 29.3682 1.28267 25.4281 1.97353 24.2893C3.93816 21.0401 6.21585 20.6083 9.33552 18.1309C15.3644 13.3327 13.9448 9.29007 18.0954 5.1719C25.5222 -2.19548 42.4914 -1.58018 50.7548 6.30534C53.7989 9.20912 55.7095 13.1492 56.2277 14.2178C59.153 20.2467 59.5362 26.0165 59.3527 26.0542C59.2232 26.0812 58.8454 23.334 57.3287 19.7879C56.2709 17.3105 52.5197 10.2238 46.8741 9.65709C43.1445 9.28467 42.6534 12.1992 37.5151 12.7498C31.551 13.3867 29.5972 9.74344 25.7165 11.2871C23.1905 12.291 21.9869 14.655 19.5689 19.3831C17.5125 23.4095 16.433 26.9934 15.8339 29.4492V29.4438Z" fill="white"/>
</svg>
